<svg width="24" height="24" viewBox="0 0 24 24" fill="none" xmlns="http://www.w3.org/2000/svg">
<path d="M7.82143 2C8.3558 2 8.78571 2.42354 8.78571 2.95V4.53333H15.2143V2.95C15.2143 2.42354 15.6442 2 16.1786 2C16.7129 2 17.1429 2.42354 17.1429 2.95V4.53333H18.4286C19.8469 4.53333 21 5.66937 21 7.06667V18.4667C21 19.864 19.8469 21 18.4286 21H5.57143C4.15313 21 3 19.864 3 18.4667V7.06667C3 5.66937 4.15313 4.53333 5.57143 4.53333H6.85714V2.95C6.85714 2.42354 7.28705 2 7.82143 2ZM18.4286 19.1C18.7821 19.1 19.0714 18.815 19.0714 18.4667V15.9333H15.5357V19.1H18.4286ZM19.0714 14.0333V10.8667H15.5357V14.0333H19.0714ZM13.6071 14.0333V10.8667H10.3929V14.0333H13.6071ZM8.46429 14.0333V10.8667H4.92857V14.0333H8.46429ZM4.92857 15.9333V18.4667C4.92857 18.815 5.21786 19.1 5.57143 19.1H8.46429V15.9333H4.92857ZM10.3929 15.9333V19.1H13.6071V15.9333H10.3929ZM7.82143 6.43333H5.57143C5.21786 6.43333 4.92857 6.71833 4.92857 7.06667V8.96667H19.0714V7.06667C19.0714 6.71833 18.7821 6.43333 18.4286 6.43333H7.82143Z"
fill="currentColor"
/>
</svg>
