<svg width="11" height="11" viewBox="0 0 11 11" fill="none" xmlns="http://www.w3.org/2000/svg">
<path d="M4.23314 10.0188L3.44761 10.575C3.29591 10.6833 3.09641 10.6958 2.93016 10.6104C2.76391 10.525 2.66 10.3542 2.66 10.1667V8.66667H1.995C0.893594 8.66667 0 7.77083 0 6.66667V2C0 0.895833 0.893594 0 1.995 0H8.645C9.74641 0 10.64 0.895833 10.64 2V6.66667C10.64 7.77083 9.74641 8.66667 8.645 8.66667H6.14294L4.23314 10.0188ZM5.56938 7.85C5.7377 7.73125 5.93928 7.66667 6.14502 7.66667H8.645C9.1957 7.66667 9.6425 7.21875 9.6425 6.66667V2C9.6425 1.44792 9.1957 1 8.645 1H1.995C1.4443 1 0.9975 1.44792 0.9975 2V6.66667C0.9975 7.21875 1.4443 7.66667 1.995 7.66667H3.15875C3.37488 7.66667 3.55983 7.80417 3.62841 7.99792C3.64711 8.05 3.6575 8.10625 3.6575 8.16667V9.20208C4.33705 8.72083 4.97295 8.27083 5.5673 7.85H5.56938Z"
fill="currentColor"/>
</svg>
