<svg width="31" height="33" viewBox="0 0 31 33" fill="none" xmlns="http://www.w3.org/2000/svg">
<path d="M11.5 4H5.5C5.10218 4 4.72064 4.15804 4.43934 4.43934C4.15804 4.72064 4 5.10218 4 5.5V14.5C4 14.8978 4.15804 15.2794 4.43934 15.5607C4.72064 15.842 5.10218 16 5.5 16H11.5C11.8978 16 12.2794 15.842 12.5607 15.5607C12.842 15.2794 13 14.8978 13 14.5V5.5C13 5.10218 12.842 4.72064 12.5607 4.43934C12.2794 4.15804 11.8978 4 11.5 4Z" stroke="currentColor" stroke-width="3" stroke-linecap="round" stroke-linejoin="round"/>
<path d="M5.5 22H11.5C11.8978 22 12.2794 22.158 12.5607 22.4393C12.842 22.7206 13 23.1022 13 23.5V26.5C13 26.8978 12.842 27.2794 12.5607 27.5607C12.2794 27.842 11.8978 28 11.5 28H5.5C5.10218 28 4.72064 27.842 4.43934 27.5607C4.15804 27.2794 4 26.8978 4 26.5V23.5C4 23.1022 4.15804 22.7206 4.43934 22.4393C4.72064 22.158 5.10218 22 5.5 22Z" stroke="currentColor" stroke-width="3" stroke-linecap="round" stroke-linejoin="round"/>
<path d="M26.5 16H20.5C20.1022 16 19.7206 16.158 19.4393 16.4393C19.158 16.7206 19 17.1022 19 17.5V26.5C19 26.8978 19.158 27.2794 19.4393 27.5607C19.7206 27.842 20.1022 28 20.5 28H26.5C26.8978 28 27.2794 27.842 27.5607 27.5607C27.842 27.2794 28 26.8978 28 26.5V17.5C28 17.1022 27.842 16.7206 27.5607 16.4393C27.2794 16.158 26.8978 16 26.5 16Z" stroke="currentColor" stroke-width="3" stroke-linecap="round" stroke-linejoin="round"/>
<path d="M26.5 4H20.5C20.1022 4 19.7206 4.15804 19.4393 4.43934C19.158 4.72064 19 5.10218 19 5.5V8.5C19 8.89782 19.158 9.27936 19.4393 9.56066C19.7206 9.84196 20.1022 10 20.5 10H26.5C26.8978 10 27.2794 9.84196 27.5607 9.56066C27.842 9.27936 28 8.89782 28 8.5V5.5C28 5.10218 27.842 4.72064 27.5607 4.43934C27.2794 4.15804 26.8978 4 26.5 4Z" stroke="currentColor" stroke-width="3" stroke-linecap="round" stroke-linejoin="round"/>
</svg>
